<?xml version="1.0" encoding="utf-8"?>
<!-- Generator: Adobe Illustrator 24.3.0, SVG Export Plug-In . SVG Version: 6.00 Build 0)  -->
<svg version="1.1" xmlns="http://www.w3.org/2000/svg" xmlns:xlink="http://www.w3.org/1999/xlink" x="0px" y="0px"
	 viewBox="0 0 400 400" style="enable-background:new 0 0 400 400;" xml:space="preserve">
<style type="text/css">
	.st0{fill:none;stroke:#000000;stroke-width:12;stroke-miterlimit:10;}
	.st1{display:none;}
	.st2{display:inline;fill:#FFFFFF;}
	.st3{fill:#FFFFFF;}
</style>
<g id="Dice_Layout">
	<g id="Dice_Face">
		<path d="M49.84,341.16c0,4.97,4.03,9,9,9h282.32c4.97,0,9-4.03,9-9V58.84c0-4.97-4.03-9-9-9H58.84c-4.97,0-9,4.03-9,9V341.16z"/>
		<path class="st0" d="M49.84,341.16c0,4.97,4.03,9,9,9h282.32c4.97,0,9-4.03,9-9V58.84c0-4.97-4.03-9-9-9H58.84c-4.97,0-9,4.03-9,9
			V341.16z"/>
	</g>
</g>
<g id="Dice_1_x2C__3_x2C__5" class="st1">
	<circle id="Center_1_" class="st2" cx="200" cy="200" r="17.5"/>
</g>
<g id="Dice_2_x2C__3_x2C__4_x2C__5">
	<circle id="Lower_Left" class="st3" cx="125.65" cy="275.08" r="17.5"/>
	<circle id="Upper_Right" class="st3" cx="275.61" cy="124.92" r="17.5"/>
</g>
<g id="Dice_4_x2C__5" class="st1">
	<circle id="Upper_Left" class="st2" cx="125.65" cy="124.92" r="17.5"/>
	<circle id="Lower_Right" class="st2" cx="275.41" cy="275.28" r="17.5"/>
</g>
<g id="Dice_6" class="st1">
	<circle id="Center_Right" class="st2" cx="275.41" cy="200.1" r="17.5"/>
	<circle id="Center_Left" class="st2" cx="125.65" cy="200" r="17.5"/>
</g>
</svg>
